<?xml version="1.0" encoding="utf-8"?>
<!-- Generator: Adobe Illustrator 24.1.0, SVG Export Plug-In . SVG Version: 6.00 Build 0)  -->
<svg version="1.1" id="Capa_1" xmlns="http://www.w3.org/2000/svg" xmlns:xlink="http://www.w3.org/1999/xlink" x="0px" y="0px"
	 viewBox="0 0 300 300" style="enable-background:new 0 0 300 300;" xml:space="preserve">
<style type="text/css">
	.st0{fill:#B89E5C;}
</style>
<g>
	<path class="st0" d="M257.7,167.5c3.8,0,6.9-3.1,6.9-6.9v-42.2c0-3.8-3.1-6.9-6.9-6.9h-28c-11.5-31.4-40.7-53.5-74-56.3V43.4h69.1
		c3.8,0,6.9-3.1,6.9-6.9V7.3c0-3.8-3.1-6.9-6.9-6.9s-6.9,3.1-6.9,6.9v22.2h-69.1c-3.8,0-6.9,3.1-6.9,6.9v18.8
		c-33.8,3-62.4,24.7-73.7,56.2H42.3c-3.8,0-6.9,3.1-6.9,6.9v42.2c0,3.8,3.1,6.9,6.9,6.9h12.5v76.1H42.3c-3.8,0-6.9,3.1-6.9,6.9v42.2
		c0,3.8,3.1,6.9,6.9,6.9h215.3c3.8,0,6.9-3.1,6.9-6.9v-42.2c0-3.8-3.1-6.9-6.9-6.9H246v-76.1H257.7z M146.8,68.8
		c0.6,0.2,1.3,0.3,2,0.3c0.7,0,1.4-0.1,2-0.3c27.7,0.8,52.7,17.7,63.9,42.6H83C94,86.5,118.5,69.9,146.8,68.8z M49.3,125.3h175.4
		c0,0,0,0,0,0c0,0,0,0,0,0h26v28.4h-9.4c-0.7-0.3-1.5-0.4-2.3-0.4H61.8c-0.8,0-1.6,0.2-2.3,0.4H49.3V125.3z M250.7,285.8H49.3v-28.4
		h12.5h177.3h11.7V285.8z M232.2,243.6H68.7v-76.1h163.5V243.6z"/>
	<path class="st0" d="M148.7,226.8c11.8,0,21.5-9.7,21.5-21.5c0-11.8-9.7-21.5-21.5-21.5c-11.8,0-21.5,9.7-21.5,21.5
		C127.2,217.1,136.9,226.8,148.7,226.8z M148.7,194.8c5.9,0,10.6,4.6,10.6,10.6c0,5.9-4.6,10.6-10.6,10.6c-5.9,0-10.6-4.6-10.6-10.6
		C138.2,199.4,142.8,194.8,148.7,194.8z"/>
</g>
</svg>
