<?xml version="1.0" encoding="utf-8"?>
<!-- Generator: Adobe Illustrator 24.1.0, SVG Export Plug-In . SVG Version: 6.00 Build 0)  -->
<svg version="1.1" id="OBJECTS" xmlns="http://www.w3.org/2000/svg" xmlns:xlink="http://www.w3.org/1999/xlink" x="0px" y="0px"
	 viewBox="0 0 102.1 99.5" style="enable-background:new 0 0 102.1 99.5;" xml:space="preserve">
<style type="text/css">
	.st0{fill:#D1C8C5;}
	.st1{fill:#454545;}
	.st2{fill:#CEE0ED;}
	.st3{fill:#45332C;}
	.st4{fill:#785F4C;}
	.st5{fill:#BFB7B4;}
	.st6{opacity:0.4;fill:#FFFFFF;}
	
		.st7{opacity:0.19;fill:none;stroke:#FFFFFF;stroke-width:0.3226;stroke-linecap:round;stroke-linejoin:round;stroke-miterlimit:10;}
	.st8{fill:#DDD6D4;}
	.st9{fill:none;stroke:#D1C8C5;stroke-width:2.5808;stroke-miterlimit:10;}
</style>
<g>
	<polygon class="st0" points="74.8,0.5 59.9,34.3 25.5,34.3 10.6,0.5 	"/>
	<path class="st1" d="M97.6,49.5c-0.7-4.7-4.4-7.4-7.2-7.9c-2.8-0.5-19.5-1-19.5-1l-0.6,11.5c0,0,13.2-3.7,17.2-3.7
		c2.6,0,3.8,1.8,4.1,3.7c0.2,1.3,3.2,22.4,3.2,22.4c0.3,1.8,1.9,3.2,3.7,3.2s3-1.4,2.8-3.2C101.2,74.7,98.3,54.2,97.6,49.5z"/>
	<g>
		<g>
			<path class="st2" d="M83.9,83.5c-1.4-5.5-12.1-45.3-12.1-45.3l3.6-7.2H42.8H10.2l3.6,7.2c0,0-10.7,39.8-12.1,45.3
				S-0.5,99,10.6,99c11.1,0,32.2,0,32.2,0s21.1,0,32.2,0S85.3,89,83.9,83.5z"/>
			<g>
				<path class="st3" d="M4.9,84.3c-1.1,4.2-0.9,7.8,0.5,9.6c0.9,1.2,2.7,1.8,5.2,1.8H75c2.5,0,4.3-0.6,5.2-1.8
					c1.4-1.8,1.6-5.4,0.5-9.6c-0.5-2-2.2-8.4-4.2-15.8H9.1C7.1,75.9,5.4,82.3,4.9,84.3z"/>
				<path class="st4" d="M10.8,62.1c-0.6,2.2-1.2,4.3-1.7,6.4h67.4c-0.6-2.1-1.1-4.2-1.7-6.4H10.8z"/>
			</g>
		</g>
		<path class="st5" d="M78.8,30.6c0,1.2-1,2.1-2.1,2.1H9c-1.2,0-2.1-1-2.1-2.1l0,0c0-1.2,1-2.1,2.1-2.1h67.6
			C77.8,28.4,78.8,29.4,78.8,30.6L78.8,30.6z"/>
		<path class="st6" d="M15,89c-0.3,1.5-1.8,2.4-3.3,2.1l0,0c-1.5-0.3-2.4-1.8-2.1-3.3l9.8-45.2c0.3-1.5,1.8-2.4,3.3-2.1l0,0
			c1.5,0.3,2.4,1.8,2.1,3.3L15,89z"/>
	</g>
	<line class="st7" x1="16.2" y1="2" x2="25.3" y2="23.4"/>
	<line class="st7" x1="22.5" y1="2" x2="29" y2="23.4"/>
	<line class="st7" x1="28.8" y1="2" x2="32.8" y2="23.4"/>
	<line class="st7" x1="36.6" y1="2" x2="38" y2="23.4"/>
	<line class="st7" x1="68.9" y1="2" x2="59.8" y2="23.4"/>
	<line class="st7" x1="62.6" y1="2" x2="56.1" y2="23.4"/>
	<line class="st7" x1="56.3" y1="2" x2="52.3" y2="23.4"/>
	<line class="st7" x1="48.7" y1="2" x2="47.3" y2="23.4"/>
	<line class="st7" x1="42.7" y1="2.1" x2="42.7" y2="23.5"/>
	<path class="st8" d="M25.9,20.1c0.3,0.7-0.3,1.4-1.3,1.6l0,0c-1,0.2-2.1-0.2-2.4-0.9L15.6,5.2c-0.3-0.7,0.3-1.4,1.3-1.6l0,0
		c1-0.2,2.1,0.2,2.4,0.9L25.9,20.1z"/>
	<path class="st9" d="M68.3,11.5c0,0,5.9-6,8.7,1.1c2.7,6.9-10.6,7.2-11.3,2.8"/>
</g>
</svg>
