<?xml version="1.0" encoding="utf-8"?>
<!-- Generator: Adobe Illustrator 24.1.0, SVG Export Plug-In . SVG Version: 6.00 Build 0)  -->
<svg version="1.1" id="OBJECTS" xmlns="http://www.w3.org/2000/svg" xmlns:xlink="http://www.w3.org/1999/xlink" x="0px" y="0px"
	 viewBox="0 0 109.1 138.1" style="enable-background:new 0 0 109.1 138.1;" xml:space="preserve">
<style type="text/css">
	.st0{fill:#4F4F4F;}
	.st1{fill:#CEE0ED;}
	.st2{fill:#666666;}
	.st3{fill:#382B26;}
	.st4{fill:#45332C;}
	.st5{fill:#785F4C;}
	.st6{fill:#8F8F8F;}
	.st7{fill:#7A7A7A;}
	.st8{opacity:0.4;fill:#FFFFFF;}
</style>
<g>
	<g>
		<g>
			<path class="st0" d="M47.1,3.9c0,1.6-1.3,2.9-2.9,2.9c-1.6,0-2.9-1.3-2.9-2.9c0-1.6,1.3-2.9,2.9-2.9C45.8,1,47.1,2.3,47.1,3.9z"
				/>
			<path class="st1" d="M13.8,27.3h-3.2H9.9v0.1C1.9,28,0.2,37.8,0.2,37.8h9.7v98.1h68.5V27.3H13.8z"/>
			<path class="st2" d="M78.1,129.6h-68c-3.6,0-6.5,2.9-6.5,6.5v1.6h81v-1.6C84.7,132.6,81.7,129.6,78.1,129.6z"/>
			<path class="st3" d="M12.2,85.4v34.9c0,3.8,3.1,7,7,7h49.9c3.8,0,7-3.1,7-7V85.4H12.2z"/>
			<rect x="12.2" y="56.5" class="st4" width="63.9" height="30.1"/>
			<rect x="12.2" y="53.3" class="st5" width="63.9" height="3.2"/>
			<rect x="42.8" y="6.6" class="st6" width="2.7" height="71.5"/>
			<rect x="40.8" y="76.9" class="st7" width="6.8" height="4.9"/>
			<rect x="18.1" y="80.3" class="st6" width="52.1" height="3.2"/>
			<rect x="12.2" y="83" class="st7" width="63.9" height="4.4"/>
			<path class="st2" d="M62.3,14.2c-6.5,0-9.2,0-18.1,0c-9,0-11.7,0-18.1,0c-9.4,0-16.1,9.2-16.1,13.2h34.2h34.2
				C78.4,23.4,71.7,14.2,62.3,14.2z"/>
			<path class="st2" d="M50.9,6.2c0,1.4-1.1,2.5-2.5,2.5H40c-1.4,0-2.5-1.1-2.5-2.5l0,0c0-1.4,1.1-2.5,2.5-2.5h8.3
				C49.7,3.7,50.9,4.8,50.9,6.2L50.9,6.2z"/>
		</g>
		<g>
			<path class="st6" d="M81.9,110h-3.5v-7h3.5c10.9,0,19.7-8.8,19.7-19.7v-22c0-10.9-8.8-19.7-19.7-19.7h-3.5v-7h3.5
				c14.7,0,26.7,12,26.7,26.7v22C108.6,98,96.6,110,81.9,110z"/>
		</g>
	</g>
	<path class="st8" d="M25.8,116.1c0,2.5-2,4.6-4.6,4.6l0,0c-2.5,0-4.6-2-4.6-4.6V40.2c0-2.5,2-4.6,4.6-4.6l0,0c2.5,0,4.6,2,4.6,4.6
		V116.1z"/>
</g>
</svg>
