<?xml version="1.0" encoding="utf-8"?>
<!-- Generator: Adobe Illustrator 24.1.0, SVG Export Plug-In . SVG Version: 6.00 Build 0)  -->
<svg version="1.1" id="Capa_1" xmlns="http://www.w3.org/2000/svg" xmlns:xlink="http://www.w3.org/1999/xlink" x="0px" y="0px"
	 viewBox="0 0 300 300" style="enable-background:new 0 0 300 300;" xml:space="preserve">
<style type="text/css">
	.st0{fill:#B89E5C;}
</style>
<g>
	<g>
		<g>
			<path class="st0" d="M44.3,270.6c-19.6-10.3-32.8-27.8-33.5-48.2c-1.4-33.9,32.8-63.2,76.7-64.9c20.7-0.7,40.7,4.6,56,15.3
				c15.7,11.1,25,26.4,25.7,43.2s-7.1,32.8-22.1,45.3c-14.3,11.8-33.9,18.9-54.6,19.6l0,0C74.6,281.7,57.8,277.8,44.3,270.6z
				 M129.2,179.3c-11.8-6.4-26.4-9.6-41.4-8.9c-36.4,1.4-65.3,24.6-64.2,51.7c1.1,27.1,31.8,47.8,68.1,46.4l0,0
				c18.2-0.7,34.6-6.8,47.1-16.8c11.8-9.6,17.8-22.1,17.5-35c-0.4-12.8-7.8-24.6-20.3-33.2C133.8,181.8,131.7,180.4,129.2,179.3z"/>
		</g>
		<g>
			<path class="st0" d="M37.5,230.3c-2.5-1.4-3.6-3.9-2.9-6.8c0.7-3.2,4.3-5.4,7.5-4.3c14.3,3.6,19.6,0.7,31.8-5.7
				c4.3-2.5,9.6-5,16.1-7.8c26.8-11.8,52.8,9.6,53.9,10.3c2.5,2.1,2.9,6.1,0.7,8.6c-2.1,2.5-6.1,2.9-8.6,0.7
				c-0.4-0.4-21.4-17.5-41.4-8.6c-6.1,2.5-10.7,5-15,7.5c-12.5,6.8-21.8,11.4-40.3,6.4C38.6,230.7,37.8,230.7,37.5,230.3z"/>
		</g>
	</g>
	<g>
		<g>
			<path class="st0" d="M157.4,148.6c-9.3-20.3-8.9-42.1,2.5-58.5c19.6-27.8,64.6-30,100.3-5c17.1,12.1,29.6,28.5,35,46.4
				c5.7,18.6,3.6,36-6.1,50c-9.6,13.9-25.7,21.8-45,22.5c-18.6,0.7-38.2-5.7-55.3-17.5l0,0C174.5,175.7,163.8,162.5,157.4,148.6z
				 M280.5,127.9c-5.7-12.5-15-23.5-27.5-32.5c-30-21.1-67.1-20.3-82.4,1.8c-15.7,22.1-3.9,57.1,26,78.5l0,0
				c14.6,10.3,31.8,15.7,47.5,15.3c15.3-0.7,27.8-6.8,35-17.1c7.5-10.3,8.9-24.3,4.3-38.9C282.3,132.6,281.5,130.4,280.5,127.9z"/>
		</g>
		<g>
			<path class="st0" d="M176.6,112.6c-1.1-2.5-0.4-5.4,1.8-7.1c2.5-2.1,6.4-1.4,8.6,1.1c8.9,11.4,15,12.5,28.5,15
				c5,0.7,10.7,1.8,17.5,3.6c28.5,7.1,36,40,36.4,41c0.7,3.2-1.4,6.4-4.6,7.1s-6.4-1.4-7.1-4.6c0-0.4-6.4-26.8-27.5-32.1
				c-6.4-1.4-11.8-2.5-16.4-3.2c-13.9-2.5-24.3-4.3-36-19.6C177,113.3,176.6,112.9,176.6,112.6z"/>
		</g>
	</g>
	<g>
		<g>
			<path class="st0" d="M7.5,91.9C-0.7,73.7-0.3,53.7,10,39.1c17.8-25,58.2-27.1,90.6-4.3c15.3,10.7,26.8,25.7,31.8,41.7
				c5.4,16.8,3.2,32.5-5.4,45c-8.9,12.5-23.2,19.6-40.7,20.3c-16.8,0.7-34.6-5-50-15.7l0,0C23.2,116.5,13.2,104.4,7.5,91.9z
				 M118.8,73.3c-5-11.1-13.6-21.4-24.6-29.3c-27.5-19.3-60.7-18.2-74.9,1.4c-13.9,20-3.6,51.7,23.5,70.6l0,0
				c13.2,9.3,28.5,14.3,42.8,13.9c13.9-0.4,25-6.1,31.8-15.3c6.8-9.3,7.8-21.8,3.9-35C120.6,77.6,119.6,75.5,118.8,73.3z"/>
		</g>
		<g>
			<path class="st0" d="M25,59.4c-1.1-2.1-0.4-5,1.8-6.4c2.5-1.8,5.7-1.4,7.5,1.1C42.5,64.4,47.8,65.5,60,67.6
				c4.6,0.7,9.6,1.8,15.7,3.2c25.7,6.4,32.5,36,32.8,37.1c0.7,2.9-1.1,5.7-4.3,6.4c-2.9,0.7-5.7-1.1-6.4-4.3c0-0.4-5.7-24.3-25-28.9
				c-5.7-1.4-10.7-2.1-15-2.9C45,76.2,36.1,74.4,25.4,60.8C25.4,60.1,25,59.8,25,59.4z"/>
		</g>
	</g>
</g>
</svg>
