<?xml version="1.0" encoding="utf-8"?>
<!-- Generator: Adobe Illustrator 24.1.0, SVG Export Plug-In . SVG Version: 6.00 Build 0)  -->
<svg version="1.1" id="Capa_1" xmlns="http://www.w3.org/2000/svg" xmlns:xlink="http://www.w3.org/1999/xlink" x="0px" y="0px"
	 viewBox="0 0 300 300" style="enable-background:new 0 0 300 300;" xml:space="preserve">
<style type="text/css">
	.st0{fill:#B89E5C;}
</style>
<g>
	<path class="st0" d="M239,280.4l-4.5-104.8c-0.4-15-2.3-30.2-5.9-46.6l-18-83.8h1.2c2.6,0,5.1-1.2,6.9-3.3c1.9-2.3,2.7-5.5,2.1-8.5
		l-3.2-22C217.4,6,213.5,2,208.6,2H90.2c-4.7,0-8.8,4.2-9.1,9.3l-3.2,22.1c-0.5,3,0.3,6.2,2.1,8.5c1.7,2.1,4.2,3.3,6.9,3.3h1.2
		l-17.6,82.2c-3.6,16.9-5.5,32.7-5.9,48.3L61,280.5c0,0.1,0,0.2,0,0.2c0,9.4,7.9,17.3,17.3,17.3h143.8c4.7,0,9.2-2,12.4-5.5
		C237.7,289.2,239.3,284.8,239,280.4z M204.5,280.6c-0.2,1.6-0.8,3.1-1.5,4.2H97.5c-0.7-1-1.2-2.4-1.2-4l5.6-235.6h95.2l0.8,3.5
		L204.5,280.6z M93.9,15.2h110.9l2.4,16.6h-4.8H96.3h-4.8L93.9,15.2z M74.2,280.8L77.9,176c0.4-14.8,2.2-29.8,5.6-45.9l6.4-30
		l-4.3,180.6c0,0,0,0.1,0,0.1c0,1.4,0.2,2.7,0.4,4h-7.8C76.2,284.8,74.3,282.9,74.2,280.8z M224.8,283.5c-0.7,0.8-1.7,1.2-2.7,1.2
		h-7.6c0.3-1.2,0.5-2.4,0.6-3.6c0-0.2,0-0.4,0-0.5l-5-174.7l5.5,25.8c3.4,15.6,5.2,30.1,5.6,44.3c0,0,0,0.1,0,0.1l4.5,104.9
		c0,0.1,0,0.1,0,0.2C225.8,282.3,225.2,283.1,224.8,283.5z"/>
	<path class="st0" d="M153.7,128.3c-9.4,1.6-18.9,6.6-26.2,14.3c-15.6,16.4-18,39.3-5.3,51.6c7.4,7.4,18.4,9.4,29.5,6.1
		c7.4-2,15.2-6.6,21.7-13.5c7.4-7.8,11.9-17.6,13.1-27c1.2-9.8-1.6-18.4-7.8-24.6C172.5,129.1,163.5,126.6,153.7,128.3z
		 M179.9,159.8c-0.8,8.2-4.9,16.4-11.5,22.9c-13.1,13.5-32,16.8-42.2,7c-9.8-9.8-7.4-28.7,5.3-42.2c5.7-5.7,12.3-9.4,18.9-11.5
		c1.6-0.4,2.9-0.8,4.1-0.8c7.8-1.2,14.3,0.8,19.3,5.3C178.7,145.1,180.7,152,179.9,159.8z"/>
	<path class="st0" d="M168.8,144.7c-0.8,0-18,1.2-23.8,15.2c-1.6,3.3-2.5,6.1-3.3,8.6c-2,7-3.3,9.8-9.8,13.5c-1.6,0.8-2,2.5-1.2,4.1
		c0.8,1.6,2.5,2,3.7,1.6c0.4,0,0.8,0,0.8-0.4c8.6-4.9,10.2-9.8,12.7-16.8c0.8-2.5,1.6-4.9,2.9-8.2c4.1-10.2,18-11.5,18.4-11.5
		c1.6,0,2.9-1.6,2.9-3.3C172.1,145.9,170.5,144.7,168.8,144.7z"/>
</g>
</svg>
