<?xml version="1.0" encoding="utf-8"?>
<!-- Generator: Adobe Illustrator 24.1.0, SVG Export Plug-In . SVG Version: 6.00 Build 0)  -->
<svg version="1.1" id="OBJECTS" xmlns="http://www.w3.org/2000/svg" xmlns:xlink="http://www.w3.org/1999/xlink" x="0px" y="0px"
	 viewBox="0 0 53.3 109.8" style="enable-background:new 0 0 53.3 109.8;" xml:space="preserve">
<style type="text/css">
	.st0{fill:#454545;}
	.st1{fill:#696969;}
	.st2{fill:#CEE0ED;}
	.st3{fill:#45332C;}
	.st4{fill:#545454;}
	.st5{fill:#785F4C;}
	.st6{opacity:0.4;fill:#FFFFFF;}
	.st7{opacity:0.4;}
	.st8{fill:#FFFFFF;}
</style>
<g>
	<g>
		<g>
			<path class="st0" d="M49.2,79h-2V63.8c0-2.6-2.3-4.6-5.1-4.6H24.2v-1.9H42c3.9,0,7.1,2.9,7.1,6.5V79z"/>
		</g>
		<g>
			<g>
				<g>
					<polygon class="st1" points="28.2,107.3 11.9,107.3 10.6,99.6 29.5,99.6 					"/>
					<g>
						<path class="st2" d="M29.9,65.1H10.2c-5.8,3.1-9.6,8.8-9.6,15.3C0.6,90.1,9.3,98,20,98c10.7,0,19.5-7.9,19.5-17.7
							C39.5,73.8,35.6,68.1,29.9,65.1z"/>
						<path class="st3" d="M4.2,88c3,5.1,9,8.6,15.8,8.6c6.9,0,12.8-3.5,15.8-8.6H4.2z"/>
					</g>
					<path class="st1" d="M23.1,80.4c0,1.5-1.4,2.8-3.1,2.8l0,0c-1.7,0-3.1-1.2-3.1-2.8V62.1c0-1.5,1.4-2.8,3.1-2.8l0,0
						c1.7,0,3.1,1.2,3.1,2.8V80.4z"/>
					<rect x="16.8" y="47" class="st1" width="6.4" height="14.5"/>
					<path class="st4" d="M28.9,61.2c0,0.3-0.3,0.6-0.6,0.6H11.9c-0.4,0-0.6-0.3-0.6-0.6v-4.1c0-0.3,0.3-0.6,0.6-0.6h16.4
						c0.4,0,0.6,0.3,0.6,0.6V61.2z"/>
					<path class="st0" d="M31.2,64.6c0,0.3-0.3,0.6-0.6,0.6h-21c-0.4,0-0.6-0.3-0.6-0.6v-4.1c0-0.3,0.3-0.6,0.6-0.6h21
						c0.4,0,0.6,0.3,0.6,0.6V64.6z"/>
					<path class="st0" d="M7.6,45.5v5c0,0.8,0.7,1.5,1.7,1.5h21.6c0.9,0,1.7-0.7,1.7-1.5v-5H7.6z"/>
				</g>
				<g>
					<g>
						<path class="st2" d="M1.1,9.9V43c0,1.3,1.2,2.4,2.7,2.4h32.6c1.5,0,2.7-1.1,2.7-2.4V9.9H1.1z"/>
						<path class="st3" d="M2.5,27.8v14.1c0,1.2,1.1,2.2,2.5,2.2h30.1c1.4,0,2.5-1,2.5-2.2V27.8H2.5z"/>
						<rect x="2.5" y="23.6" class="st5" width="35" height="4.6"/>
					</g>
				</g>
			</g>
			<path class="st1" d="M20.7,6.9h-1.3c-1.2,0-2.1,0.9-2.1,1.9v10.7h5.6V8.8C22.8,7.8,21.9,6.9,20.7,6.9z"/>
			<path class="st0" d="M29.7,0.6H10.4c-5.1,0-9.3,3.8-9.3,8.5v1.1H39V9.1C39,4.4,34.9,0.6,29.7,0.6z"/>
		</g>
		<path class="st4" d="M48.2,74.5c-2.5,0-4.5,1.8-4.5,4.1v28.5h9V78.6C52.6,76.3,50.6,74.5,48.2,74.5z"/>
		<path class="st0" d="M1.1,106.4c-0.8,0-1.5,0.6-1.5,1.4c0,0.8,0.7,1.4,1.5,1.4h51.5v-2.7H1.1z"/>
	</g>
	<path class="st6" d="M10.9,39.5c0,1-0.9,1.9-2.1,1.9l0,0c-1.1,0-2.1-0.8-2.1-1.9V14.4c0-1,0.9-1.9,2.1-1.9l0,0
		c1.1,0,2.1,0.8,2.1,1.9V39.5z"/>
	<g class="st7">
		<path class="st8" d="M13.1,93.2c-0.3,0-0.6,0-0.8-0.2c-4.6-2.7-7.5-7.2-7.8-12.2c-0.3-4.9,1.9-9.5,6-12.6c0.6-0.4,1.4-0.4,1.9,0.2
			c0.5,0.5,0.4,1.3-0.2,1.7C8.8,72.7,7,76.6,7.2,80.6c0.2,4.2,2.7,8,6.6,10.2c0.6,0.4,0.8,1.1,0.4,1.7C14,92.9,13.6,93.1,13.1,93.2z
			"/>
	</g>
</g>
</svg>
