<?xml version="1.0" encoding="utf-8"?>
<!-- Generator: Adobe Illustrator 24.1.0, SVG Export Plug-In . SVG Version: 6.00 Build 0)  -->
<svg version="1.1" id="Capa_1" xmlns="http://www.w3.org/2000/svg" xmlns:xlink="http://www.w3.org/1999/xlink" x="0px" y="0px"
	 viewBox="0 0 300 300" style="enable-background:new 0 0 300 300;" xml:space="preserve">
<style type="text/css">
	.st0{fill:#B89E5C;}
</style>
<path class="st0" d="M295.6,15.2c-0.1-2.7-1.9-5-4.4-6c-0.9-0.3-21.2-7.8-45.8-8.9c-33.8-1.5-59.2,9.9-73.6,33
	c-14.3,23-17.2,46.2-16.8,63.1V135c-9.5-17.7-27.1-45.4-49.2-55.6C69.3,62.4,12,75,9.6,75.6c-3.2,0.7-5.5,3.7-5.3,7
	c0.1,0.9,1.5,22.5,10.5,45.5c12.4,31.5,33.1,50.1,60,53.8c5.2,0.7,10.3,1.1,15.2,1.1c31.1,0,54.7-13.3,65-20.4v53l-72.9,72.7
	c-1.9,1.9-2.5,4.8-1.5,7.3c1,2.5,3.5,4.2,6.2,4.2h153.3c2.8,0,5.2-1.7,6.3-4.2c1-2.6,0.4-5.5-1.6-7.4l-76.3-72.7v-88.8
	c5.6,0.5,15.9,1.3,28,1.3c24.1,0,55.4-3,71.3-16.9C298.8,83.8,295.7,18,295.6,15.2z M76.7,168.5c-44.7-6.2-55.8-62.4-58.3-80.9
	c15.1-2.6,55.7-8.1,81.8,4c18.7,8.6,34.6,34.1,43.2,50.3l-67-21.5c-3.5-1.1-7.3,0.8-8.5,4.4c-1.1,3.5,0.8,7.3,4.4,8.5l68.9,22.1
	C128.3,162.7,105.1,172.4,76.7,168.5z M223.3,286.3H103.2l51.9-51.7V252c0,3.7,3,6.7,6.7,6.7s6.7-3,6.7-6.7v-17.9L223.3,286.3z
	 M258.9,100.9c-15.1,13.2-52.7,14.4-77.3,13.2l52.5-44.9c2.8-2.4,3.2-6.7,0.7-9.5c-2.4-2.8-6.7-3.2-9.5-0.7l-55.9,47.9
	c-1.8-14.3-2.1-40.8,13.8-66.4c24.5-39.3,82.7-25,99-20C282.3,35.2,280.8,81.7,258.9,100.9z"/>
</svg>
