<?xml version="1.0" encoding="utf-8"?>
<!-- Generator: Adobe Illustrator 24.1.0, SVG Export Plug-In . SVG Version: 6.00 Build 0)  -->
<svg version="1.1" id="Capa_1" xmlns="http://www.w3.org/2000/svg" xmlns:xlink="http://www.w3.org/1999/xlink" x="0px" y="0px"
	 viewBox="0 0 300 300" style="enable-background:new 0 0 300 300;" xml:space="preserve">
<style type="text/css">
	.st0{fill:#B89E5C;}
</style>
<g>
	<g>
		<path class="st0" d="M84.7,281.9c-28-15.2-46.8-40.3-48.2-69.1c-1.9-48.7,47.3-90.6,109.9-93c29.9-1.1,58.2,6.5,80.3,22
			c22.6,15.8,35.6,37.8,36.7,62s-10.3,47.1-31.6,64.7c-20.7,17.1-48.4,27.2-78.4,28.3l0,0C128,298,104.3,292.3,84.7,281.9z
			 M209,148.4c-18-9.5-39.4-14.1-62-13.3c-54.7,2.2-97.7,37-96,77.3c1.6,40.3,47.3,71.5,102,69.1l0,0c26.9-1.1,52-10.1,70.2-25.3
			c17.4-14.4,26.7-32.9,26.1-52.2c-0.8-19-11.4-36.7-30.2-49.8C215.8,152.2,212.6,150.3,209,148.4z"/>
	</g>
	<g>
		<path class="st0" d="M71.9,224.8c-3.5-1.9-5.4-6.3-4.4-10.3c1.4-4.9,6.3-7.6,11.2-6.5c21.2,5.4,29.4,1.1,47.6-8.4
			c6.5-3.5,14.1-7.3,23.7-11.7c40.3-17.4,78.9,14.4,80.5,15.8c3.8,3.3,4.4,9,1.1,12.8c-3.3,3.8-9,4.4-12.8,1.1
			c-0.5-0.5-32.1-25.8-61.8-13.1c-9,3.8-16.1,7.6-22.6,10.9c-19,9.8-32.6,17.1-60.4,9.8C73.3,225.3,72.7,225.1,71.9,224.8z"/>
	</g>
	<g>
		<g>
			<path class="st0" d="M92.3,102.1c-0.5,0-1.1,0-1.4-0.3c-3-0.8-4.9-3.8-4.1-7.1c1.6-6.3-1.1-12.8-6.8-15.8
				C70,73.5,64.8,62.7,67.3,51.5l0.8-3.8c1.1-5.4-1.1-10.9-5.7-14.1c-2.7-1.9-3.3-5.4-1.4-8.2c1.9-2.7,5.4-3.3,8.2-1.4
				c8.2,5.7,12.2,16.1,10.3,25.8l-0.8,3.8c-1.1,6,1.6,12,7.1,15c10.3,5.4,15.5,17.4,12.5,28.8C97.2,100.5,95,102.1,92.3,102.1z"/>
		</g>
		<g>
			<path class="st0" d="M97.5,109.7c-0.8,0-1.9-0.3-2.7-0.8L74.6,95.9c-2.2-1.4-3-4.6-1.4-6.8c1.4-2.2,4.6-3,6.8-1.4l15.2,10.1
				l6.8-15.5c1.1-2.4,4.1-3.5,6.5-2.4c2.4,1.1,3.5,4.1,2.4,6.5l-9.2,20.7c-0.5,1.4-1.6,2.4-3,2.7C98.6,109.7,98,109.7,97.5,109.7z"
				/>
		</g>
	</g>
	<g>
		<g>
			<path class="st0" d="M144.3,85.8c-0.5,0-0.8-0.3-1.4-0.5c-2.7-1.4-4.1-4.9-2.4-7.6c3-5.7,1.6-12.8-3.3-16.9
				c-8.4-7.3-11.2-19.3-6.5-29.7l1.6-3.5c2.2-4.9,1.4-10.9-2.4-15c-2.2-2.4-1.9-6,0.5-8.2s6-1.9,8.2,0.5c6.8,7.3,8.4,18.2,4.4,27.5
				l-1.6,3.5c-2.4,5.7-1.1,12.2,3.5,16.3c9,7.6,11.4,20.4,6,30.7C149.2,85.2,146.7,86.3,144.3,85.8z"/>
		</g>
		<g>
			<path class="st0" d="M147.8,94.2c-0.8-0.3-1.9-0.5-2.4-1.4L128.2,76c-1.9-1.9-1.9-4.9,0-7.1c1.9-1.9,4.9-1.9,7.1,0l13.1,12.8
				l9.8-13.9c1.6-2.2,4.6-2.7,6.8-1.1c2.2,1.6,2.7,4.6,1.1,6.8L153,92c-0.8,1.1-2.2,1.9-3.5,2.2C148.9,94.5,148.4,94.5,147.8,94.2z"
				/>
		</g>
	</g>
	<g>
		<g>
			<path class="st0" d="M193.5,93.9c-0.3-0.3-0.8-0.5-1.1-1.1c-1.9-2.4-1.6-6,0.8-8.2c4.9-4.1,6.5-10.9,3.8-16.9
				c-4.9-10.3-2.4-22,6-29.7l3-2.7c4.1-3.8,5.7-9.5,3.8-14.7c-1.1-3,0.5-6.3,3.8-7.3c3-1.1,6.3,0.5,7.3,3.8c3,9.5,0.3,20.1-7.1,26.9
				l-3,2.7c-4.6,4.1-6,10.6-3.3,16.3c4.9,10.6,2.2,23.1-7.1,30.5C198.4,95.3,195.7,95.3,193.5,93.9z"/>
		</g>
		<g>
			<path class="st0" d="M192.2,102.7c-0.8-0.5-1.4-1.4-1.6-2.4l-6.8-23.1c-0.8-2.7,0.8-5.4,3.3-6c2.7-0.8,5.4,0.8,6,3.3l5.2,17.4
				l15.2-7.3c2.4-1.1,5.4,0,6.5,2.4c1.1,2.4,0,5.4-2.4,6.5l-20.4,9.8c-1.4,0.5-2.7,0.5-4.1,0C192.7,103.2,192.4,102.9,192.2,102.7z"
				/>
		</g>
	</g>
</g>
</svg>
