<?xml version="1.0" encoding="utf-8"?>
<!-- Generator: Adobe Illustrator 24.1.0, SVG Export Plug-In . SVG Version: 6.00 Build 0)  -->
<svg version="1.1" id="OBJECTS" xmlns="http://www.w3.org/2000/svg" xmlns:xlink="http://www.w3.org/1999/xlink" x="0px" y="0px"
	 viewBox="0 0 52.3 109.8" style="enable-background:new 0 0 52.3 109.8;" xml:space="preserve">
<style type="text/css">
	.st0{fill:#F9B074;}
	.st1{fill:#F0E3D0;}
	.st2{fill:#FFC288;}
	.st3{fill:#CEE0ED;}
	.st4{fill:#785F4C;}
	.st5{fill:#45332C;}
	.st6{opacity:0.4;fill:#FFFFFF;}
	.st7{fill:#FF8048;}
	.st8{clip-path:url(#SVGID_2_);}
	.st9{fill:none;stroke:#FFA466;stroke-width:0.7535;stroke-miterlimit:10;}
	.st10{opacity:0.55;fill:#DB673A;}
	.st11{fill:none;stroke:#6A3125;stroke-width:2.2606;stroke-linecap:round;stroke-linejoin:round;stroke-miterlimit:10;}
	.st12{fill:#FFB568;}
</style>
<g>
	<g>
		<g>
			<path class="st0" d="M14.8,6.5c2.5-0.8,5.2-0.6,7.7-0.3c2.6,0.3,5.2,0.8,7.8,0.5c6.8-0.7,12.8-6.2,19.6-5.6
				c-1.9,6.6-4,13.1-6.4,19.4c-0.5,1.3-1,2.6-2,3.4c-1.1,0.9-2.5,1-3.8,1.1c-5.6,0.4-11.4,0.5-16.7-1.4c-3.8-1.4-7.3-3.9-9.7-7.5
				c-1-1.5-2.4-3.6-1.6-5.5C10.6,8.6,12.8,7.2,14.8,6.5z"/>
			<path class="st1" d="M43.1,16.2c0.7-0.1,1.5-0.3,2.2-0.5c1.1-3.1,2.1-6.2,3.1-9.4c0,0,0,0,0,0c-0.5,0.4-1,0.7-1.6,0.9
				c-1.3,0.3-2.6,0.1-3.9,0.1c-6.3,0-12.2,5.1-18.5,4.1c-3.7-0.6-6.8-3.2-10.3-4.6c-1.7,0.7-3.5,2.1-4.4,3.9
				c-0.8,1.9,0.5,3.9,1.6,5.5c0.1,0.2,0.2,0.4,0.4,0.5C21.8,19.8,32.6,18.1,43.1,16.2z"/>
			<path class="st2" d="M1.2,9.4C3.1,7.3,6,6.9,8.6,7.6c2.6,0.7,4.8,2.3,7.1,3.8c2.3,1.5,4.7,2.9,7.3,3c4.1,0.3,7.9-2.5,11.9-3.7
				c4.6-1.5,9.7-1,14,1.5c-1.3,5-3.1,9.8-5.4,14.3c-7.2-0.4-14.5-0.7-21.7-1.1c-3.5-0.2-7.1-0.2-10.5-0.5c-2.4-0.3-3.1-2.1-4.1-4.3
				C5.4,16.7,3.4,13,1.2,9.4z"/>
			<path class="st1" d="M41.7,26.3c1.1-0.6,2.1-1.4,3-2.3c1-2.2,1.9-4.4,2.6-6.7c-10.3,2.2-20.8,2.7-31.2,1.4
				c-3.9-0.5-7.8-1.3-11.3-3.1c0.8,1.6,1.6,3.2,2.4,4.8c1,2.2,1.7,4,4.1,4.3c3.5,0.4,7,0.4,10.5,0.5C28.5,25.6,35.1,26,41.7,26.3z"
				/>
		</g>
		<g>
			<path class="st3" d="M50.4,88.7L35.4,49.9l11.6-24.8c0.9-1.9-0.3-4.1-2.2-4.1H26.1H7.6c-1.9,0-3.1,2.2-2.2,4.1l11.6,24.8
				L1.8,88.7c-2,5.1-1.5,10.9,1.3,15.4l0,0c1.8,2.9,4.7,4.6,7.8,4.6h15.1h15.1c3.1,0,6-1.7,7.8-4.6h0C51.9,99.6,52.4,93.7,50.4,88.7
				z"/>
			<path class="st4" d="M47.5,102.7L47.5,102.7c2.6-4.2,3.1-9.7,1.3-14.4l-1.6-4.1L5.3,83.7l-1.8,4.6C1.7,93,2.1,98.4,4.7,102.7
				c1.7,2.7,4.4,4.3,7.3,4.3h14.1h14.1C43.1,106.9,45.9,105.3,47.5,102.7z"/>
			<path class="st5" d="M47.5,102.7L47.5,102.7c2.6-4.2,3.1-9.7,1.3-14.4H3.5C1.7,93,2.1,98.4,4.7,102.7c1.7,2.7,4.4,4.3,7.3,4.3
				h14.1h14.1C43.1,106.9,45.9,105.3,47.5,102.7z"/>
			<path class="st6" d="M12.2,70.8C10.5,75,8.6,79.2,7,83.4C5.7,87.1,4.9,91,6.2,94.8c0.8,2.5,4.5,1.4,3.6-1.1
				c-1.2-3.7,0.1-7.2,1.5-10.6c1.4-3.4,2.8-6.7,4.2-10.1C16.5,70.5,13.2,68.4,12.2,70.8z"/>
		</g>
		<path class="st6" d="M15.5,35.5c0.3,0.7,0.1,1.5-0.5,1.8l0,0c-0.6,0.3-1.3,0.1-1.6-0.6L8.8,26c-0.3-0.7-0.1-1.5,0.5-1.8l0,0
			c0.6-0.3,1.3-0.1,1.6,0.6L15.5,35.5z"/>
		<polygon class="st7" points="12.1,39.7 16.9,49.9 12.1,62.3 40.2,62.3 35.4,49.9 40.2,39.4 		"/>
		<g>
			<defs>
				<polygon id="SVGID_1_" points="12.1,39.7 16.9,49.9 12.1,62.3 40.2,62.3 35.4,49.9 40.2,39.4 				"/>
			</defs>
			<clipPath id="SVGID_2_">
				<use xlink:href="#SVGID_1_"  style="overflow:visible;"/>
			</clipPath>
			<g class="st8">
				<polyline class="st9" points="14,38.6 18.5,49.5 13.6,63.3 				"/>
				<polyline class="st9" points="17.1,38.6 20.9,49.5 16.7,63.3 				"/>
				<polyline class="st9" points="20.3,38.6 23.3,49.5 19.9,63.3 				"/>
				<polyline class="st9" points="23.4,38.6 25.7,49.5 23,63.3 				"/>
				<line class="st9" x1="26.6" y1="38.6" x2="26.6" y2="63.3"/>
				<polyline class="st9" points="38.7,38.6 34.2,49.5 39.1,63.3 				"/>
				<polyline class="st9" points="35.5,38.6 31.8,49.5 35.9,63.3 				"/>
				<polyline class="st9" points="32.4,38.6 30.1,49.5 32.8,63.3 				"/>
				<polyline class="st9" points="29.3,38.6 27.7,49.5 29.7,63.3 				"/>
			</g>
		</g>
		<polygon class="st10" points="33.6,39.5 30.4,49 34.6,62.3 40.2,62.3 35.4,49.9 40.2,39.4 		"/>
		<line class="st11" x1="15.7" y1="49.6" x2="36.6" y2="49.6"/>
		<g>
			<line class="st11" x1="23.7" y1="58.2" x2="25.9" y2="49.9"/>
			<line class="st11" x1="28.8" y1="58.5" x2="26.7" y2="49.5"/>
			<ellipse class="st12" cx="26.2" cy="49.9" rx="2.5" ry="2.9"/>
		</g>
	</g>
</g>
</svg>
