<?xml version="1.0" encoding="utf-8"?>
<!-- Generator: Adobe Illustrator 24.1.0, SVG Export Plug-In . SVG Version: 6.00 Build 0)  -->
<svg version="1.1" id="Capa_1" xmlns="http://www.w3.org/2000/svg" xmlns:xlink="http://www.w3.org/1999/xlink" x="0px" y="0px"
	 viewBox="0 0 512 512" style="enable-background:new 0 0 512 512;" xml:space="preserve">
<style type="text/css">
	.st0{fill:#432724;}
</style>
<path class="st0" d="M188.3,147.1c7.5-4.3,16.8-5,24.2,0.4l144,88c7.1,4.4,11.5,12.1,11.5,20.5s-4.4,16.1-11.5,20.5l-144,88
	c-7.4,4.5-16.7,4.7-24.2,0.4c-7.6-4.2-12.3-12.2-12.3-20.9V167.1C176,159.3,180.7,151.3,188.3,147.1L188.3,147.1z M512,256
	c0,141.4-114.6,256-256,256S0,397.4,0,256S114.6,0,256,0S512,114.6,512,256z M256,48C141.1,48,48,141.1,48,256s93.1,208,208,208
	s208-93.1,208-208S370.9,48,256,48z"/>
</svg>
