<?xml version="1.0" encoding="utf-8"?>
<!-- Generator: Adobe Illustrator 24.1.0, SVG Export Plug-In . SVG Version: 6.00 Build 0)  -->
<svg version="1.1" id="Modo_de_aislamiento" xmlns="http://www.w3.org/2000/svg" xmlns:xlink="http://www.w3.org/1999/xlink"
	 x="0px" y="0px" viewBox="0 0 113.8 108.4" style="enable-background:new 0 0 113.8 108.4;" xml:space="preserve">
<style type="text/css">
	.st0{fill:#FFFFFF;}
</style>
<g>
	<g>
		<path class="st0" d="M104.3,62.1l-0.1,0.4c-4,24.6-24.9,42.4-49.8,42.4c-27.8,0-50.5-22.7-50.5-50.5c0-27.8,22.7-50.5,50.5-50.5
			c24.6,0,45.5,17.6,49.7,41.8l0.1,0.4h2.8l-0.1-0.6C102.5,19.8,80.4,1.1,54.3,1.1C25,1.1,1.1,25,1.1,54.4
			c0,29.4,23.9,53.2,53.2,53.2c26,0,48.6-19.3,52.6-45l0.1-0.6H104.3z"/>
		<path class="st0" d="M108.8,49.7H93.7l-0.1-1C90.8,29,73.8,14.2,54,14.2c-22,0-39.9,17.9-39.9,39.9C14.1,76.1,32,94,54,94
			c20.1,0,37.1-15,39.6-35l0.1-1h15.1c2.3,0,4.2-1.9,4.2-4.2C113,51.6,111.1,49.7,108.8,49.7 M54,86.3c-17.8,0-32.2-14.5-32.2-32.2
			c0-17.8,14.5-32.2,32.2-32.2c17.8,0,32.2,14.5,32.2,32.2C86.2,71.9,71.7,86.3,54,86.3"/>
		<path class="st0" d="M38.9,35.1c0.5-0.3,1.1-0.5,1.7-0.8c0.5-0.3,1-0.5,1.5-0.7v13.6h-2.4v0.6h8.1v-0.6h-2.3v-16h-1.2l0,0
			c-0.5,0.4-1,0.8-1.4,1.1c-0.4,0.3-0.8,0.6-1.2,0.8c-0.4,0.2-0.8,0.5-1.3,0.7c-0.5,0.2-1,0.5-1.6,0.8l-0.1,0.1l0.4,0.5L38.9,35.1z"
			/>
		<path class="st0" d="M58,46.9c0.5,0.4,1.2,0.7,1.9,0.9c0.7,0.2,1.5,0.3,2.2,0.3c0.9,0,1.8-0.2,2.6-0.5c0.8-0.3,1.4-0.7,2-1.3
			c0.5-0.5,1-1.1,1.3-1.7c0.3-0.6,0.5-1.3,0.5-1.9c0-1.1-0.4-2-1.1-2.7c-0.7-0.7-1.6-1.3-2.9-1.8c1-0.4,1.8-0.9,2.3-1.5
			c0.6-0.6,0.9-1.3,0.9-2c0-0.5-0.1-1-0.4-1.4c-0.3-0.4-0.6-0.8-1.1-1.1c-0.4-0.3-1-0.6-1.5-0.7c-0.6-0.2-1.2-0.3-1.9-0.3
			c-0.8,0-1.6,0.1-2.3,0.3c-0.7,0.2-1.3,0.5-1.8,0.9c-0.5,0.4-0.9,0.9-1.2,1.4C57.1,34.3,57,35,57,35.6c0,0.6,0.1,1.1,0.3,1.5
			c0.2,0.4,0.4,0.8,0.7,1.1c0.3,0.3,0.7,0.6,1.1,0.8c0.3,0.2,0.7,0.4,1,0.5c-0.5,0.2-0.9,0.4-1.3,0.6c-0.5,0.2-0.9,0.5-1.3,0.9
			c-0.4,0.3-0.7,0.7-0.9,1.2c-0.2,0.4-0.3,1-0.3,1.6c0,0.6,0.2,1.2,0.5,1.7C57,46.1,57.5,46.5,58,46.9 M62.4,31.8
			c0.6,0,1,0.1,1.3,0.3c0.3,0.2,0.5,0.5,0.7,0.8c0.1,0.3,0.2,0.7,0.3,1c0,0.3,0,0.6,0,0.8c0,0.6,0,1.2-0.1,1.5
			c-0.1,0.4-0.1,0.7-0.2,0.9c-0.1,0.2-0.2,0.4-0.3,0.5c-0.1,0.1-0.2,0.2-0.3,0.3c-0.6-0.2-1.2-0.5-1.7-0.7c-0.5-0.2-1-0.5-1.3-0.8
			c-0.4-0.3-0.6-0.6-0.8-0.9c-0.2-0.3-0.3-0.7-0.3-1.2c0-0.3,0.1-0.7,0.2-1c0.1-0.3,0.3-0.6,0.6-0.8c0.2-0.2,0.5-0.4,0.9-0.6
			C61.6,31.8,62,31.8,62.4,31.8 M62.1,47.5c-0.4,0-0.8-0.1-1.1-0.2c-0.3-0.1-0.7-0.3-0.9-0.6c-0.2-0.3-0.4-0.7-0.6-1.2
			c-0.1-0.5-0.2-1.1-0.2-1.8c0-0.3,0-0.7,0-1c0-0.4,0.1-0.7,0.2-1.1c0.1-0.3,0.3-0.7,0.5-1c0.2-0.3,0.5-0.5,0.8-0.7l2.1,1
			c0.4,0.2,0.8,0.4,1.2,0.6c0.3,0.2,0.6,0.4,0.8,0.7c0.2,0.3,0.4,0.5,0.5,0.9c0.1,0.3,0.2,0.7,0.2,1.2c0,0.3-0.1,0.7-0.2,1.1
			c-0.1,0.4-0.3,0.7-0.5,1.1c-0.2,0.3-0.6,0.6-1,0.8C63.4,47.4,62.8,47.5,62.1,47.5"/>
		<path class="st0" d="M49.5,61c-0.6-0.6-1.3-1.1-2.1-1.4c-0.8-0.3-1.7-0.5-2.6-0.5c-0.8,0-1.5,0.1-2.3,0.4c-0.7,0.3-1.4,0.6-2,1.1
			c-0.6,0.5-1.1,1-1.4,1.7c-0.4,0.6-0.5,1.3-0.5,2c0,0.7,0.2,1.4,0.5,2c0.3,0.6,0.8,1.2,1.3,1.6c0.5,0.5,1.2,0.8,1.9,1.1
			c0.7,0.3,1.5,0.4,2.3,0.4c0.5,0,1-0.1,1.3-0.1c0.4-0.1,0.7-0.2,1-0.4c0.3-0.2,0.5-0.3,0.6-0.5c0.1-0.1,0.1-0.2,0.2-0.2
			c0,1-0.1,1.9-0.2,2.7c-0.1,0.9-0.3,1.7-0.6,2.4c-0.3,0.7-0.7,1.2-1.1,1.6c-0.5,0.4-1.1,0.6-1.9,0.6c-0.1,0-0.3,0-0.5,0
			c-0.2,0-0.3,0-0.5-0.1c-0.1-0.1-0.3-0.1-0.3-0.3c-0.1-0.1-0.1-0.3-0.1-0.5c0-0.1,0-0.2,0-0.3c0-0.1,0.1-0.3,0.1-0.4l0.1-0.4
			c0-0.2,0.1-0.3,0.1-0.4c0-0.2-0.1-0.4-0.2-0.6c-0.1-0.1-0.2-0.2-0.4-0.3C42.2,72,42,72,41.8,72c-0.8-0.1-1.4,0-1.8,0.3
			c-0.3,0.3-0.5,0.6-0.5,1.2c0,0.2,0.1,0.5,0.2,0.8c0.1,0.3,0.3,0.6,0.7,0.8c0.3,0.3,0.8,0.5,1.3,0.6c0.6,0.2,1.3,0.3,2.2,0.3
			c1.3,0,2.5-0.3,3.4-0.8c0.9-0.5,1.7-1.2,2.3-2.1c0.6-0.9,1.1-1.9,1.3-3.1c0.3-1.2,0.4-2.4,0.4-3.8c0-1.1-0.2-2.2-0.5-3
			C50.6,62.3,50.1,61.6,49.5,61 M47.7,65.2c0,0.4,0,0.7,0,1.1c0,0.3-0.1,0.6-0.1,0.7c-0.1,0.6-0.5,1.1-1,1.4
			c-0.5,0.3-1.1,0.5-1.9,0.5c-0.8,0-1.4-0.3-1.8-0.9c-0.4-0.6-0.6-1.7-0.6-3.3c0-1.1,0.1-2,0.2-2.7c0.1-0.7,0.3-1.2,0.6-1.5
			c0.2-0.3,0.5-0.6,0.8-0.7c0.3-0.1,0.6-0.2,1-0.2c0.3,0,0.6,0,0.9,0.1c0.3,0.1,0.6,0.3,0.9,0.6c0.3,0.4,0.5,0.9,0.7,1.6
			C47.6,62.8,47.7,63.9,47.7,65.2"/>
		<path class="st0" d="M69.7,66.3c0-0.5-0.1-1.1-0.2-1.7c-0.1-0.6-0.3-1.3-0.5-1.9c-0.2-0.7-0.6-1.3-1.1-1.8c-0.5-0.5-1.1-1-1.8-1.3
			c-0.7-0.3-1.6-0.5-2.7-0.5c-1,0-1.8,0.2-2.5,0.5c-0.7,0.3-1.3,0.7-1.7,1.2c-0.5,0.5-0.8,1.1-1.1,1.7c-0.3,0.6-0.5,1.3-0.6,1.9
			c-0.1,0.6-0.2,1.2-0.3,1.8c0,0.6-0.1,1-0.1,1.4c0,0.3,0,0.7,0,1.2c0,0.5,0.1,1.1,0.2,1.7c0.1,0.6,0.3,1.3,0.6,1.9
			c0.2,0.6,0.6,1.2,1.1,1.8c0.5,0.5,1.1,1,1.8,1.3c0.7,0.3,1.6,0.5,2.7,0.5c0.9,0,1.8-0.2,2.5-0.5c0.7-0.3,1.3-0.7,1.7-1.2
			c0.5-0.5,0.8-1.1,1.1-1.7c0.3-0.6,0.5-1.3,0.6-1.9c0.1-0.6,0.2-1.2,0.3-1.8c0.1-0.5,0.1-1,0.1-1.4C69.8,67.3,69.8,66.9,69.7,66.3
			 M63.4,75.4c-0.6,0-1.1-0.1-1.5-0.4c-0.3-0.3-0.6-0.7-0.8-1.4c-0.2-0.6-0.3-1.5-0.3-2.5c0-1-0.1-2.3-0.1-3.6c0-1.4,0-2.6,0.1-3.6
			c0-1,0.2-1.8,0.3-2.4c0.2-0.6,0.4-1.1,0.8-1.4c0.3-0.3,0.8-0.4,1.5-0.4c0.6,0,1.1,0.1,1.5,0.4c0.3,0.3,0.6,0.7,0.8,1.3
			c0.2,0.6,0.3,1.4,0.3,2.4c0,1,0.1,2.3,0.1,3.7c0,1.4,0,2.6-0.1,3.6c0,1-0.2,1.8-0.3,2.5c-0.2,0.6-0.4,1.1-0.8,1.4
			C64.5,75.3,64.1,75.4,63.4,75.4"/>
	</g>
	<g>
		<path class="st0" d="M31.5,55.8v-5h2c0.5,0,0.9,0.1,1.2,0.2c0.3,0.1,0.6,0.3,0.9,0.5c0.2,0.2,0.4,0.5,0.5,0.8
			c0.1,0.3,0.2,0.6,0.2,1c0,0.4-0.1,0.7-0.2,1c-0.1,0.3-0.3,0.6-0.6,0.8c-0.2,0.2-0.5,0.4-0.9,0.5c-0.3,0.1-0.7,0.2-1.1,0.2H31.5z
			 M35.4,53.3c0-0.3,0-0.5-0.1-0.7c-0.1-0.2-0.2-0.4-0.4-0.6c-0.2-0.2-0.4-0.3-0.6-0.4c-0.2-0.1-0.5-0.1-0.8-0.1h-1.1v3.6h1.1
			c0.3,0,0.6,0,0.8-0.1c0.2-0.1,0.4-0.2,0.6-0.4c0.2-0.2,0.3-0.4,0.4-0.6C35.3,53.8,35.4,53.5,35.4,53.3z"/>
		<path class="st0" d="M45.9,55.1v0.7H42v-5h3.8v0.7h-2.9v1.4h2.5v0.7h-2.5v1.5H45.9z"/>
		<path class="st0" d="M55,51.9c-0.1-0.1-0.1-0.1-0.2-0.2c-0.1-0.1-0.2-0.1-0.4-0.2c-0.1-0.1-0.3-0.1-0.5-0.1c-0.2,0-0.3,0-0.5,0
			c-0.4,0-0.6,0.1-0.8,0.2c-0.2,0.1-0.3,0.3-0.3,0.5c0,0.1,0,0.2,0.1,0.3c0.1,0.1,0.1,0.1,0.3,0.2c0.1,0.1,0.3,0.1,0.4,0.2
			c0.2,0,0.4,0.1,0.6,0.1c0.3,0.1,0.5,0.1,0.8,0.2c0.2,0.1,0.4,0.2,0.6,0.3c0.2,0.1,0.3,0.2,0.4,0.4c0.1,0.2,0.1,0.3,0.1,0.6
			c0,0.3-0.1,0.5-0.2,0.7c-0.1,0.2-0.3,0.3-0.5,0.4c-0.2,0.1-0.4,0.2-0.7,0.3c-0.2,0.1-0.5,0.1-0.8,0.1c-0.4,0-0.9-0.1-1.3-0.2
			c-0.4-0.1-0.8-0.3-1.1-0.5l0.4-0.7c0.1,0.1,0.2,0.1,0.3,0.2c0.1,0.1,0.3,0.1,0.5,0.2c0.2,0.1,0.4,0.1,0.6,0.2
			c0.2,0,0.4,0.1,0.6,0.1c0.3,0,0.6-0.1,0.8-0.2c0.2-0.1,0.3-0.3,0.3-0.5c0-0.1,0-0.2-0.1-0.3c-0.1-0.1-0.2-0.2-0.3-0.2
			c-0.1-0.1-0.3-0.1-0.5-0.2c-0.2,0-0.4-0.1-0.7-0.2c-0.3-0.1-0.5-0.1-0.7-0.2c-0.2-0.1-0.4-0.2-0.5-0.3c-0.1-0.1-0.2-0.2-0.3-0.4
			c-0.1-0.1-0.1-0.3-0.1-0.5c0-0.2,0.1-0.5,0.2-0.7c0.1-0.2,0.2-0.4,0.4-0.5s0.4-0.2,0.7-0.3c0.3-0.1,0.5-0.1,0.8-0.1
			c0.4,0,0.8,0.1,1.1,0.2c0.3,0.1,0.6,0.2,0.9,0.4L55,51.9z"/>
		<path class="st0" d="M61.3,55.8v-5h2c0.5,0,0.9,0.1,1.2,0.2c0.3,0.1,0.6,0.3,0.9,0.5c0.2,0.2,0.4,0.5,0.5,0.8
			c0.1,0.3,0.2,0.6,0.2,1c0,0.4-0.1,0.7-0.2,1c-0.1,0.3-0.3,0.6-0.6,0.8c-0.2,0.2-0.5,0.4-0.9,0.5c-0.3,0.1-0.7,0.2-1.1,0.2H61.3z
			 M65.2,53.3c0-0.3,0-0.5-0.1-0.7c-0.1-0.2-0.2-0.4-0.4-0.6c-0.2-0.2-0.4-0.3-0.6-0.4c-0.2-0.1-0.5-0.1-0.8-0.1h-1.1v3.6h1.1
			c0.3,0,0.6,0,0.8-0.1c0.2-0.1,0.4-0.2,0.6-0.4c0.2-0.2,0.3-0.4,0.4-0.6C65.1,53.8,65.2,53.5,65.2,53.3z"/>
		<path class="st0" d="M75.7,55.1v0.7h-3.9v-5h3.8v0.7h-2.9v1.4h2.5v0.7h-2.5v1.5H75.7z"/>
	</g>
</g>
</svg>
