<?xml version="1.0" encoding="utf-8"?>
<!-- Generator: Adobe Illustrator 24.1.0, SVG Export Plug-In . SVG Version: 6.00 Build 0)  -->
<svg version="1.1" id="Layer_1" xmlns="http://www.w3.org/2000/svg" xmlns:xlink="http://www.w3.org/1999/xlink" x="0px" y="0px"
	 viewBox="0 0 442.9 183.3" style="enable-background:new 0 0 442.9 183.3;" xml:space="preserve">
<style type="text/css">
	.st0{fill:#472622;}
	.st1{fill:#BD9E51;}
	.st2{fill:#482521;}
</style>
<g>
	<g>
		<polygon class="st0" points="2.9,126 16.1,126 30.8,148.4 45.5,126 58.8,126 58.8,179 46.5,179 46.5,144.4 30.8,167.1 30.5,167.1 
			14.9,144.7 14.9,179 2.9,179 		"/>
		<path class="st0" d="M69.7,152.7v-0.1c0-15.1,12.5-27.4,29.8-27.4c17.2,0,29.6,12.2,29.6,27.3v0.2c0,15.1-12.5,27.4-29.8,27.4
			C82.1,179.9,69.7,167.8,69.7,152.7 M116.3,152.7v-0.1c0-9.1-7-16.7-16.9-16.7c-9.9,0-16.8,7.4-16.8,16.5v0.2
			c0,9.1,7,16.7,16.9,16.7C109.4,169.2,116.3,161.8,116.3,152.7"/>
		<path class="st0" d="M140,126h25.6c7.1,0,12.6,1.9,16.3,5.4c3.1,3,4.8,7.1,4.8,12.1v0.2c0,8.6-4.9,13.9-12,16.4l13.6,18.9H174
			l-12-17h-0.2h-9.5v17H140V126z M164.8,151.8c6,0,9.4-3,9.4-7.5v-0.2c0-5-3.7-7.6-9.7-7.6h-12.2v15.2H164.8z"/>
		<polygon class="st0" points="197.8,126 239.9,126 239.9,136.4 210,136.4 210,147.2 236.3,147.2 236.3,157.5 210,157.5 210,168.7 
			240.3,168.7 240.3,179 197.8,179 		"/>
		<polygon class="st0" points="251.3,126 262.6,126 288.8,158.7 288.8,126 300.9,126 300.9,179 290.5,179 263.4,145.3 263.4,179 
			251.3,179 		"/>
		<rect x="314.9" y="126" class="st0" width="12.3" height="53"/>
		<polygon class="st0" points="354.2,136.8 337.2,136.8 337.2,126 383.5,126 383.5,136.8 366.5,136.8 366.5,179 354.2,179 		"/>
		<path class="st0" d="M404.9,125.7h11.3l24,53.4h-12.9l-5.1-11.9h-23.6l-5.1,11.9h-12.5L404.9,125.7z M417.8,156.8l-7.4-17.2
			l-7.4,17.2H417.8z"/>
	</g>
	<g>
		<g>
			<path class="st1" d="M269.9,66l-0.1,0.4c-4,24.6-24.9,42.4-49.8,42.4c-27.8,0-50.5-22.7-50.5-50.5c0-27.8,22.7-50.5,50.5-50.5
				c24.6,0,45.5,17.6,49.7,41.8l0.1,0.4h2.8l-0.1-0.6C268.2,23.7,246.1,5,220,5c-29.4,0-53.2,23.9-53.2,53.2
				c0,29.4,23.9,53.2,53.2,53.2c26,0,48.6-19.3,52.6-45l0.1-0.6H269.9z"/>
			<path class="st0" d="M274.5,53.6h-15.2l-0.1-1c-2.7-19.7-19.7-34.5-39.5-34.5c-22,0-39.9,17.9-39.9,39.9
				c0,22,17.9,39.9,39.9,39.9c20.1,0,37.1-15,39.6-35l0.1-1h15.1c2.3,0,4.2-1.9,4.2-4.2C278.6,55.5,276.8,53.6,274.5,53.6
				 M219.6,90.2c-17.8,0-32.2-14.5-32.2-32.2c0-17.8,14.5-32.2,32.2-32.2c17.8,0,32.2,14.5,32.2,32.2
				C251.8,75.8,237.4,90.2,219.6,90.2"/>
			<path class="st1" d="M204.5,39c0.5-0.3,1.1-0.5,1.7-0.8c0.5-0.3,1-0.5,1.5-0.7v13.6h-2.4v0.6h8.1v-0.6H211v-16h-1.2l0,0
				c-0.5,0.4-1,0.8-1.4,1.1c-0.4,0.3-0.8,0.6-1.2,0.8c-0.4,0.2-0.8,0.5-1.3,0.7c-0.5,0.2-1,0.5-1.6,0.8l-0.1,0.1l0.4,0.5L204.5,39z"
				/>
			<path class="st1" d="M223.6,50.8c0.5,0.4,1.2,0.7,1.9,0.9c0.7,0.2,1.5,0.3,2.2,0.3c0.9,0,1.8-0.2,2.6-0.5c0.8-0.3,1.4-0.7,2-1.3
				c0.5-0.5,1-1.1,1.3-1.7c0.3-0.6,0.5-1.3,0.5-1.9c0-1.1-0.4-2-1.1-2.7c-0.7-0.7-1.6-1.3-2.9-1.8c1-0.4,1.8-0.9,2.3-1.5
				c0.6-0.6,0.9-1.3,0.9-2c0-0.5-0.1-1-0.4-1.4c-0.3-0.4-0.6-0.8-1.1-1.1c-0.4-0.3-1-0.6-1.5-0.7c-0.6-0.2-1.2-0.3-1.9-0.3
				c-0.8,0-1.6,0.1-2.3,0.3c-0.7,0.2-1.3,0.5-1.8,0.9c-0.5,0.4-0.9,0.9-1.2,1.4c-0.3,0.6-0.4,1.2-0.4,1.8c0,0.6,0.1,1.1,0.3,1.5
				c0.2,0.4,0.4,0.8,0.7,1.1c0.3,0.3,0.7,0.6,1.1,0.8c0.3,0.2,0.7,0.4,1,0.5c-0.5,0.2-0.9,0.4-1.3,0.6c-0.5,0.2-0.9,0.5-1.3,0.9
				c-0.4,0.3-0.7,0.7-0.9,1.2c-0.2,0.4-0.3,1-0.3,1.6c0,0.6,0.2,1.2,0.5,1.7C222.7,50,223.1,50.4,223.6,50.8 M228.1,35.7
				c0.6,0,1,0.1,1.3,0.3c0.3,0.2,0.5,0.5,0.7,0.8c0.1,0.3,0.2,0.7,0.3,1c0,0.3,0,0.6,0,0.8c0,0.6,0,1.2-0.1,1.5
				c-0.1,0.4-0.1,0.7-0.2,0.9c-0.1,0.2-0.2,0.4-0.3,0.5c-0.1,0.1-0.2,0.2-0.3,0.3c-0.6-0.2-1.2-0.5-1.7-0.7c-0.5-0.2-1-0.5-1.3-0.8
				c-0.4-0.3-0.6-0.6-0.8-0.9c-0.2-0.3-0.3-0.7-0.3-1.2c0-0.3,0.1-0.7,0.2-1c0.1-0.3,0.3-0.6,0.6-0.8c0.2-0.2,0.5-0.4,0.9-0.6
				C227.3,35.7,227.7,35.7,228.1,35.7 M227.8,51.4c-0.4,0-0.8-0.1-1.1-0.2c-0.3-0.1-0.7-0.3-0.9-0.6c-0.2-0.3-0.4-0.7-0.6-1.2
				c-0.1-0.5-0.2-1.1-0.2-1.8c0-0.3,0-0.7,0-1c0-0.4,0.1-0.7,0.2-1.1c0.1-0.3,0.3-0.7,0.5-1c0.2-0.3,0.5-0.5,0.8-0.7l2.1,1
				c0.4,0.2,0.8,0.4,1.2,0.6c0.3,0.2,0.6,0.4,0.8,0.7c0.2,0.3,0.4,0.5,0.5,0.9c0.1,0.3,0.2,0.7,0.2,1.2c0,0.3-0.1,0.7-0.2,1.1
				c-0.1,0.4-0.3,0.7-0.5,1.1c-0.2,0.3-0.6,0.6-1,0.8C229,51.3,228.4,51.4,227.8,51.4"/>
			<path class="st1" d="M215.2,64.9c-0.6-0.6-1.3-1.1-2.1-1.4c-0.8-0.3-1.7-0.5-2.6-0.5c-0.8,0-1.5,0.1-2.3,0.4
				c-0.7,0.3-1.4,0.6-2,1.1c-0.6,0.5-1.1,1-1.4,1.7c-0.4,0.6-0.5,1.3-0.5,2c0,0.7,0.2,1.4,0.5,2c0.3,0.6,0.8,1.2,1.3,1.6
				c0.5,0.5,1.2,0.8,1.9,1.1c0.7,0.3,1.5,0.4,2.3,0.4c0.5,0,1-0.1,1.3-0.1c0.4-0.1,0.7-0.2,1-0.4c0.3-0.2,0.5-0.3,0.6-0.5
				c0.1-0.1,0.1-0.2,0.2-0.2c0,1-0.1,1.9-0.2,2.7c-0.1,0.9-0.3,1.7-0.6,2.4c-0.3,0.7-0.7,1.2-1.1,1.6c-0.5,0.4-1.1,0.6-1.9,0.6
				c-0.1,0-0.3,0-0.5,0c-0.2,0-0.3,0-0.5-0.1c-0.1-0.1-0.3-0.1-0.3-0.3c-0.1-0.1-0.1-0.3-0.1-0.5c0-0.1,0-0.2,0-0.3
				c0-0.1,0.1-0.3,0.1-0.4l0.1-0.4c0-0.2,0.1-0.3,0.1-0.4c0-0.2-0.1-0.4-0.2-0.6c-0.1-0.1-0.2-0.2-0.4-0.3c-0.1-0.1-0.3-0.1-0.5-0.1
				c-0.8-0.1-1.4,0-1.8,0.3c-0.3,0.3-0.5,0.6-0.5,1.2c0,0.2,0.1,0.5,0.2,0.8c0.1,0.3,0.3,0.6,0.7,0.8c0.3,0.3,0.8,0.5,1.3,0.6
				c0.6,0.2,1.3,0.3,2.2,0.3c1.3,0,2.5-0.3,3.4-0.8c0.9-0.5,1.7-1.2,2.3-2.1c0.6-0.9,1.1-1.9,1.3-3.1c0.3-1.2,0.4-2.4,0.4-3.8
				c0-1.1-0.2-2.2-0.5-3C216.2,66.2,215.7,65.5,215.2,64.9 M213.3,69.1c0,0.4,0,0.7,0,1.1c0,0.3-0.1,0.6-0.1,0.7
				c-0.1,0.6-0.5,1.1-1,1.4c-0.5,0.3-1.1,0.5-1.9,0.5c-0.8,0-1.4-0.3-1.8-0.9c-0.4-0.6-0.6-1.7-0.6-3.3c0-1.1,0.1-2,0.2-2.7
				c0.1-0.7,0.3-1.2,0.6-1.5c0.2-0.3,0.5-0.6,0.8-0.7c0.3-0.1,0.6-0.2,1-0.2c0.3,0,0.6,0,0.9,0.1c0.3,0.1,0.6,0.3,0.9,0.6
				c0.3,0.4,0.5,0.9,0.7,1.6C213.3,66.7,213.3,67.8,213.3,69.1"/>
			<path class="st1" d="M235.4,70.2c0-0.5-0.1-1.1-0.2-1.7c-0.1-0.6-0.3-1.3-0.5-1.9c-0.2-0.7-0.6-1.3-1.1-1.8
				c-0.5-0.5-1.1-1-1.8-1.3c-0.7-0.3-1.6-0.5-2.7-0.5c-1,0-1.8,0.2-2.5,0.5c-0.7,0.3-1.3,0.7-1.7,1.2c-0.5,0.5-0.8,1.1-1.1,1.7
				c-0.3,0.6-0.5,1.3-0.6,1.9c-0.1,0.6-0.2,1.2-0.3,1.8c0,0.6-0.1,1-0.1,1.4c0,0.3,0,0.7,0,1.2c0,0.5,0.1,1.1,0.2,1.7
				c0.1,0.6,0.3,1.3,0.6,1.9c0.2,0.6,0.6,1.2,1.1,1.8c0.5,0.5,1.1,1,1.8,1.3c0.7,0.3,1.6,0.5,2.7,0.5c0.9,0,1.8-0.2,2.5-0.5
				c0.7-0.3,1.3-0.7,1.7-1.2c0.5-0.5,0.8-1.1,1.1-1.7c0.3-0.6,0.5-1.3,0.6-1.9c0.1-0.6,0.2-1.2,0.3-1.8c0.1-0.5,0.1-1,0.1-1.4
				C235.4,71.2,235.4,70.8,235.4,70.2 M229.1,79.3c-0.6,0-1.1-0.1-1.5-0.4c-0.3-0.3-0.6-0.7-0.8-1.4c-0.2-0.6-0.3-1.5-0.3-2.5
				c0-1-0.1-2.3-0.1-3.6c0-1.4,0-2.6,0.1-3.6c0-1,0.2-1.8,0.3-2.4c0.2-0.6,0.4-1.1,0.8-1.4c0.3-0.3,0.8-0.4,1.5-0.4
				c0.6,0,1.1,0.1,1.5,0.4c0.3,0.3,0.6,0.7,0.8,1.3c0.2,0.6,0.3,1.4,0.3,2.4c0,1,0.1,2.3,0.1,3.7c0,1.4,0,2.6-0.1,3.6
				c0,1-0.2,1.8-0.3,2.5c-0.2,0.6-0.4,1.1-0.8,1.4C230.2,79.2,229.7,79.3,229.1,79.3"/>
		</g>
		<g>
			<path class="st2" d="M197.1,59.7v-5h2c0.5,0,0.9,0.1,1.2,0.2c0.3,0.1,0.6,0.3,0.9,0.5c0.2,0.2,0.4,0.5,0.5,0.8
				c0.1,0.3,0.2,0.6,0.2,1c0,0.4-0.1,0.7-0.2,1c-0.1,0.3-0.3,0.6-0.6,0.8c-0.2,0.2-0.5,0.4-0.9,0.5c-0.3,0.1-0.7,0.2-1.1,0.2H197.1z
				 M201,57.2c0-0.3,0-0.5-0.1-0.7s-0.2-0.4-0.4-0.6c-0.2-0.2-0.4-0.3-0.6-0.4c-0.2-0.1-0.5-0.1-0.8-0.1H198V59h1.1
				c0.3,0,0.6,0,0.8-0.1c0.2-0.1,0.4-0.2,0.6-0.4c0.2-0.2,0.3-0.4,0.4-0.6C201,57.7,201,57.4,201,57.2z"/>
			<path class="st2" d="M211.6,59v0.7h-3.9v-5h3.8v0.7h-2.9v1.4h2.5v0.7h-2.5V59H211.6z"/>
			<path class="st2" d="M220.6,55.8c-0.1-0.1-0.1-0.1-0.2-0.2c-0.1-0.1-0.2-0.1-0.4-0.2c-0.1-0.1-0.3-0.1-0.5-0.1
				c-0.2,0-0.3,0-0.5,0c-0.4,0-0.6,0.1-0.8,0.2c-0.2,0.1-0.3,0.3-0.3,0.5c0,0.1,0,0.2,0.1,0.3c0.1,0.1,0.1,0.1,0.3,0.2
				c0.1,0.1,0.3,0.1,0.4,0.2c0.2,0,0.4,0.1,0.6,0.1c0.3,0.1,0.5,0.1,0.8,0.2c0.2,0.1,0.4,0.2,0.6,0.3c0.2,0.1,0.3,0.2,0.4,0.4
				c0.1,0.2,0.1,0.3,0.1,0.6c0,0.3-0.1,0.5-0.2,0.7c-0.1,0.2-0.3,0.3-0.5,0.4c-0.2,0.1-0.4,0.2-0.7,0.3c-0.2,0.1-0.5,0.1-0.8,0.1
				c-0.4,0-0.9-0.1-1.3-0.2c-0.4-0.1-0.8-0.3-1.1-0.5l0.4-0.7c0.1,0.1,0.2,0.1,0.3,0.2c0.1,0.1,0.3,0.1,0.5,0.2
				c0.2,0.1,0.4,0.1,0.6,0.2c0.2,0,0.4,0.1,0.6,0.1c0.3,0,0.6-0.1,0.8-0.2c0.2-0.1,0.3-0.3,0.3-0.5c0-0.1,0-0.2-0.1-0.3
				c-0.1-0.1-0.2-0.2-0.3-0.2c-0.1-0.1-0.3-0.1-0.5-0.2c-0.2,0-0.4-0.1-0.7-0.2c-0.3-0.1-0.5-0.1-0.7-0.2c-0.2-0.1-0.4-0.2-0.5-0.3
				c-0.1-0.1-0.2-0.2-0.3-0.4c-0.1-0.1-0.1-0.3-0.1-0.5c0-0.2,0.1-0.5,0.2-0.7c0.1-0.2,0.2-0.4,0.4-0.5c0.2-0.1,0.4-0.2,0.7-0.3
				c0.3-0.1,0.5-0.1,0.8-0.1c0.4,0,0.8,0.1,1.1,0.2c0.3,0.1,0.6,0.2,0.9,0.4L220.6,55.8z"/>
			<path class="st2" d="M227,59.7v-5h2c0.5,0,0.9,0.1,1.2,0.2c0.3,0.1,0.6,0.3,0.9,0.5c0.2,0.2,0.4,0.5,0.5,0.8
				c0.1,0.3,0.2,0.6,0.2,1c0,0.4-0.1,0.7-0.2,1c-0.1,0.3-0.3,0.6-0.6,0.8c-0.2,0.2-0.5,0.4-0.9,0.5c-0.3,0.1-0.7,0.2-1.1,0.2H227z
				 M230.8,57.2c0-0.3,0-0.5-0.1-0.7c-0.1-0.2-0.2-0.4-0.4-0.6c-0.2-0.2-0.4-0.3-0.6-0.4c-0.2-0.1-0.5-0.1-0.8-0.1h-1.1V59h1.1
				c0.3,0,0.6,0,0.8-0.1c0.2-0.1,0.4-0.2,0.6-0.4c0.2-0.2,0.3-0.4,0.4-0.6C230.8,57.7,230.8,57.4,230.8,57.2z"/>
			<path class="st2" d="M241.4,59v0.7h-3.9v-5h3.8v0.7h-2.9v1.4h2.5v0.7h-2.5V59H241.4z"/>
		</g>
	</g>
</g>
</svg>
